<svg width="100" height="100" viewBox="0 0 100 100" fill="none" xmlns="http://www.w3.org/2000/svg">
<rect width="100" height="100" rx="20" fill="#1E1A1C"/>
<path d="M34.2812 73C33.4687 73 32.7969 72.7344 32.2656 72.2031C31.7344 71.6719 31.4688 71 31.4688 70.1875V30.8125C31.4688 30 31.7344 29.3281 32.2656 28.7969C32.7969 28.2656 33.4687 28 34.2812 28C35.0938 28 35.7656 28.2656 36.2969 28.7969C36.8281 29.3281 37.0938 30 37.0938 30.8125V70.1875C37.0938 71 36.8281 71.6719 36.2969 72.2031C35.7656 72.7344 35.0938 73 34.2812 73ZM49.75 88C48.9375 88 48.2656 87.7344 47.7344 87.2031C47.2031 86.6719 46.9375 86 46.9375 85.1875V15.8125C46.9375 15 47.2031 14.3281 47.7344 13.7969C48.2656 13.2656 48.9375 13 49.75 13C50.5625 13 51.2344 13.2656 51.7656 13.7969C52.2969 14.3281 52.5625 15 52.5625 15.8125V85.1875C52.5625 86 52.2969 86.6719 51.7656 87.2031C51.2344 87.7344 50.5625 88 49.75 88ZM18.8125 58C18 58 17.3281 57.7344 16.7969 57.2031C16.2656 56.6719 16 56 16 55.1875V45.8125C16 45 16.2656 44.3281 16.7969 43.7969C17.3281 43.2656 18 43 18.8125 43C19.625 43 20.2969 43.2656 20.8281 43.7969C21.3594 44.3281 21.625 45 21.625 45.8125V55.1875C21.625 56 21.3594 56.6719 20.8281 57.2031C20.2969 57.7344 19.625 58 18.8125 58ZM65.2188 73C64.4062 73 63.7344 72.7344 63.2031 72.2031C62.6719 71.6719 62.4062 71 62.4062 70.1875V30.8125C62.4062 30 62.6719 29.3281 63.2031 28.7969C63.7344 28.2656 64.4062 28 65.2188 28C66.0313 28 66.7031 28.2656 67.2344 28.7969C67.7656 29.3281 68.0312 30 68.0312 30.8125V70.1875C68.0312 71 67.7656 71.6719 67.2344 72.2031C66.7031 72.7344 66.0313 73 65.2188 73ZM80.6875 58C79.875 58 79.2031 57.7344 78.6719 57.2031C78.1406 56.6719 77.875 56 77.875 55.1875V45.8125C77.875 45 78.1406 44.3281 78.6719 43.7969C79.2031 43.2656 79.875 43 80.6875 43C81.5 43 82.1719 43.2656 82.7031 43.7969C83.2344 44.3281 83.5 45 83.5 45.8125V55.1875C83.5 56 83.2344 56.6719 82.7031 57.2031C82.1719 57.7344 81.5 58 80.6875 58Z" fill="#FF007A"/>
</svg>
